<svg width="28" height="28" viewBox="0 0 28 28" fill="none" xmlns="http://www.w3.org/2000/svg">
<path d="M21.55 11.2H21H20.45C20.45 12.1817 20.0057 13.0119 19.2774 13.5545C18.8169 13.8782 18.1814 14.052 17.514 14.052C16.8286 14.052 16.1795 13.8763 15.7209 13.5533C14.9841 13.0138 14.55 12.1865 14.55 11.2H14H13.45C13.45 12.1817 13.0057 13.0119 12.2774 13.5545C11.8176 13.8777 11.1824 14.052 10.5 14.052C9.82959 14.052 9.18019 13.8768 8.72092 13.5533C7.98413 13.0138 7.55 12.1865 7.55 11.2H7H6.45C6.45 12.1817 6.00567 13.0118 5.27736 13.5545C4.8176 13.8777 4.18245 14.052 3.5 14.052C2.8296 14.052 2.1802 13.8768 1.72093 13.5533C0.984137 13.0138 0.55 12.1865 0.55 11.2V9.94606L5.91918 0.55H23.4373L27.45 9.91289V11.2C27.45 12.1865 27.0159 13.0138 26.279 13.5533C25.8192 13.8773 25.1833 14.052 24.5 14.052C23.8296 14.052 23.1802 13.8768 22.7209 13.5533C21.9841 13.0138 21.55 12.1865 21.55 11.2ZM5.95227 16.6079C6.32791 16.3354 6.70925 16.0587 6.9972 15.707C7.29149 16.0681 7.68498 16.3492 8.07697 16.6292L8.07796 16.6299C8.76926 17.1345 9.66117 17.35 10.5 17.35V17.3501L10.51 17.3499C11.3492 17.3346 12.2285 17.1369 12.9237 16.6287C12.924 16.6284 12.9244 16.6281 12.9248 16.6279L12.9521 16.608C13.3281 16.3352 13.7094 16.0586 13.9972 15.7084C14.2914 16.068 14.6849 16.3491 15.0774 16.6295L15.078 16.6299C15.77 17.1351 16.6623 17.35 17.514 17.35V17.3501L17.5242 17.3499C18.3503 17.3346 19.2291 17.1364 19.9237 16.6287C19.924 16.6284 19.9244 16.6281 19.9248 16.6279L19.9521 16.608C20.3281 16.3352 20.7094 16.0586 20.9972 15.7084C21.2909 16.0674 21.6835 16.3481 22.0754 16.628C22.4071 16.8759 22.8083 17.0958 23.25 17.2277V26.036H17.35V19.586V19.036H16.8H11.2H10.65V19.586V26.036H4.75V17.2328C5.18886 17.0948 5.58396 16.8747 5.92258 16.6295L5.92307 16.6291L5.95227 16.6079Z" stroke="#ACACAC" stroke-width="1.1"/>
</svg>
