<svg width="28" height="28" viewBox="0 0 28 28" fill="none" xmlns="http://www.w3.org/2000/svg">
<path d="M1.4 14C1.974 14.406 2.744 14.602 3.5 14.602C4.27 14.602 5.026 14.406 5.6 14C6.468 13.356 7 12.362 7 11.2C7 12.362 7.518 13.356 8.4 14C8.974 14.406 9.744 14.602 10.5 14.602C11.27 14.602 12.026 14.406 12.6 14C13.468 13.356 14 12.362 14 11.2C14 12.362 14.518 13.356 15.4 14C15.974 14.406 16.744 14.602 17.514 14.602C18.27 14.602 19.026 14.406 19.6 14C20.468 13.356 21 12.362 21 11.2C21 12.362 21.518 13.356 22.4 14C22.974 14.406 23.744 14.602 24.5 14.602C25.27 14.602 26.026 14.406 26.6 14C27.482 13.356 28 12.362 28 11.2V9.8L23.8 0H5.6L0 9.8V11.2C0 12.362 0.518 13.356 1.4 14ZM4.2 26.586H11.2V19.586H16.8V26.586H23.8V16.786C23.282 16.716 22.792 16.478 22.4 16.184C21.518 15.554 21 15.162 21 14C21 15.162 20.468 15.554 19.6 16.184C19.026 16.604 18.27 16.786 17.514 16.8C16.744 16.8 15.974 16.604 15.4 16.184C14.518 15.554 14 15.162 14 14C14 15.162 13.468 15.554 12.6 16.184C12.026 16.604 11.27 16.786 10.5 16.8C9.744 16.8 8.974 16.604 8.4 16.184C7.518 15.554 7 15.162 7 13.986C7 15.162 6.468 15.554 5.6 16.184C5.194 16.478 4.718 16.716 4.2 16.8V26.586Z" fill="#A83C54"/>
</svg>
