<svg width="28" height="28" viewBox="0 0 28 28" fill="none" xmlns="http://www.w3.org/2000/svg">
<path d="M14.9631 25.7301C14.6938 25.9682 14.349 26.1035 13.9897 26.1123C13.6205 26.1171 13.262 25.9879 12.9807 25.7486C12.874 25.6578 12.7811 25.5534 12.7039 25.4389H15.2185C15.1466 25.5457 15.061 25.6437 14.9631 25.7301Z" stroke="#ACACAC" stroke-width="1.1"/>
<path d="M25 23.5222V22.1271L24.9217 22.058L24.9197 22.0562C24.1325 21.3549 23.4436 20.5506 22.8714 19.6652L22.8563 19.6418L22.8436 19.6171C22.2147 18.3872 21.8377 17.0441 21.7349 15.6665L21.7333 15.6461V15.6256V11.7854C21.7311 11.4692 21.71 11.1536 21.6702 10.8401C20.3809 10.4922 19.2295 9.74741 18.3824 8.70656C17.4535 7.56515 16.9475 6.13784 16.95 4.66621V4.66667H17.2501M25 23.5222L17.2589 4.66667M25 23.5222H2.92222V22.1271L3.00056 22.058L3.00059 22.058L3.00627 22.0529C3.78161 21.3493 4.45942 20.5452 5.02172 19.6621L5.03565 19.6402L5.04746 19.6171C5.67641 18.3872 6.05338 17.0441 6.15625 15.6665L6.15778 15.6461V15.6256L6.15778 11.7833L6.15778 11.782C6.15322 9.8849 6.83515 8.0502 8.07768 6.61662C9.3202 5.18304 11.0394 4.24738 12.9179 3.98238L13.3911 3.91564V3.43778V2.41889C13.3911 2.28937 13.4426 2.16516 13.5341 2.07358C13.6257 1.982 13.7499 1.93055 13.8794 1.93055C14.009 1.93055 14.1332 1.982 14.2247 2.07358C14.3163 2.16516 14.3678 2.28937 14.3678 2.41889V3.39889V3.88273L14.8477 3.9444C15.5732 4.03763 16.2811 4.23409 16.95 4.52733M25 23.5222L16.95 4.52733M17.2501 4.66667C17.2524 4.66782 17.2548 4.66898 17.2571 4.67015L17.2589 4.66667M17.2501 4.66667C17.2498 4.66651 17.2494 4.66636 17.2491 4.66621L17.2589 4.66667M17.2501 4.66667H17.2589M16.95 4.52733L16.95 4.66567L16.95 4.52733Z" stroke="#ACACAC" stroke-width="1.1"/>
<path d="M23.3333 8.55555C25.4811 8.55555 27.2222 6.81443 27.2222 4.66666C27.2222 2.51889 25.4811 0.777771 23.3333 0.777771C21.1856 0.777771 19.4445 2.51889 19.4445 4.66666C19.4445 6.81443 21.1856 8.55555 23.3333 8.55555Z" fill="#A83C54"/>
</svg>
