<svg width="28" height="28" viewBox="0 0 28 28" fill="none" xmlns="http://www.w3.org/2000/svg">
<path d="M14 26.6622C14.49 26.651 14.9601 26.4668 15.3274 26.1422C15.6946 25.8177 15.9352 25.3738 16.0067 24.8889H11.9156C11.989 25.3869 12.2409 25.8413 12.6243 26.1675C13.0078 26.4937 13.4966 26.6695 14 26.6622V26.6622Z" fill="#A83C54"/>
<path d="M25.55 21.8789L25.2856 21.6456C24.5353 20.9771 23.8787 20.2106 23.3333 19.3667C22.7377 18.202 22.3807 16.9301 22.2833 15.6256V11.7833C22.2802 11.3166 22.2386 10.851 22.1589 10.3911C20.8414 10.1203 19.658 9.40257 18.809 8.35938C17.96 7.3162 17.4976 6.01167 17.5 4.66667V4.17666C16.6879 3.77703 15.8155 3.51424 14.9178 3.39889V2.41889C14.9178 2.1435 14.8084 1.8794 14.6137 1.68468C14.4189 1.48995 14.1548 1.38055 13.8794 1.38055C13.6041 1.38055 13.34 1.48995 13.1452 1.68468C12.9505 1.8794 12.8411 2.1435 12.8411 2.41889V3.43778C10.8311 3.72132 8.99156 4.72247 7.66206 6.25639C6.33256 7.79032 5.6029 9.75344 5.60778 11.7833V15.6256C5.51037 16.9301 5.15338 18.202 4.55778 19.3667C4.0218 20.2085 3.37571 20.9749 2.63667 21.6456L2.37222 21.8789V24.0722H25.55V21.8789Z" fill="#A83C54"/>
<path d="M23.3333 8.55555C25.4811 8.55555 27.2222 6.81443 27.2222 4.66666C27.2222 2.51889 25.4811 0.777771 23.3333 0.777771C21.1856 0.777771 19.4445 2.51889 19.4445 4.66666C19.4445 6.81443 21.1856 8.55555 23.3333 8.55555Z" fill="#A83C54"/>
</svg>
