<svg width="28" height="28" viewBox="0 0 28 28" fill="none" xmlns="http://www.w3.org/2000/svg">
<path d="M4.77138 22.0377C4.82254 22.0963 4.87628 22.1526 4.92997 22.2089C4.93166 22.2106 4.93335 22.2124 4.93504 22.2142C4.94066 22.2201 4.94629 22.226 4.9519 22.2319L5.18619 21.6765M4.77138 22.0377L4.77924 22.0309L5.18684 21.6773C5.18662 21.6771 5.18641 21.6768 5.18619 21.6765M4.77138 22.0377L4.77922 22.0309L5.18555 21.6758C5.18576 21.6761 5.18597 21.6763 5.18619 21.6765M4.77138 22.0377C4.7422 22.0041 4.71152 21.9725 4.6809 21.941C4.65022 21.9094 4.6196 21.8779 4.59062 21.8445L4.57713 21.8286L4.59478 21.8139L4.99965 21.4765C5.01532 21.4953 5.03465 21.5158 5.06818 21.5503C5.07077 21.553 5.07349 21.5558 5.07632 21.5587C5.10543 21.5886 5.14643 21.6308 5.18619 21.6765M22.9824 21.4622L22.7033 21.7979C22.6969 21.8047 22.6904 21.8115 22.6838 21.8185C22.6536 21.8501 22.6209 21.8845 22.5826 21.9256L22.5808 21.9276C22.345 22.1837 22.1048 22.4262 21.8551 22.6537C21.8043 22.6994 21.7554 22.7411 21.7005 22.7879C21.6753 22.8093 21.6489 22.8318 21.6205 22.8563L21.6199 22.8567C21.5951 22.8781 21.5703 22.8994 21.5453 22.9205L21.5438 22.8064C21.5355 22.1756 21.4057 21.3153 21.1736 20.5073C20.9472 19.7192 20.5947 18.877 20.0806 18.3694C19.1601 17.4605 17.9189 16.9506 16.6253 16.95H16.625H11.375H11.3747C10.0812 16.9506 8.83986 17.4605 7.91939 18.3694C7.40526 18.877 7.05282 19.7192 6.82644 20.5073C6.59434 21.3153 6.46451 22.1756 6.45618 22.8064L6.45469 22.9191C6.43036 22.8984 6.40608 22.8776 6.38185 22.8567L6.3813 22.8563C6.35005 22.8294 6.32194 22.8055 6.29567 22.7833C6.24266 22.7383 6.19714 22.6997 6.14848 22.6553L6.1472 22.6541C5.89791 22.428 5.65768 22.1846 5.42093 21.9276L5.41913 21.9257C5.37947 21.883 5.34624 21.8483 5.3161 21.8167C5.31333 21.8138 5.31059 21.811 5.30786 21.8081L5.01598 21.4602C3.26221 19.3698 2.30064 16.7285 2.3 13.9998L2.3 13.9995C2.29836 12.1219 2.74896 10.2715 3.61369 8.60485C4.47842 6.93822 5.73184 5.50437 7.26792 4.42461C8.804 3.34484 10.5775 2.65093 12.4385 2.40156C14.2995 2.15219 16.1932 2.35471 17.9593 2.99197C19.7255 3.62924 21.3122 4.68252 22.5852 6.0627C23.8582 7.44287 24.78 9.10935 25.2727 10.9212C25.7655 12.733 25.8146 14.6368 25.4159 16.4716C25.0173 18.3064 24.1826 20.0182 22.9824 21.4622ZM21.5509 23.6268C21.6958 23.5123 21.8386 23.3944 21.9791 23.2732C22.0029 23.2528 22.0268 23.2324 22.0507 23.212C22.1088 23.1625 22.1671 23.1129 22.2241 23.0615C22.4884 22.8208 22.7404 22.5662 22.9854 22.3002L21.5509 23.6268ZM16.4931 7.20624C15.7552 6.71315 14.8875 6.44996 14 6.44996C12.8098 6.44996 11.6684 6.92275 10.8269 7.76432C9.98529 8.60589 9.5125 9.7473 9.5125 10.9375C9.5125 11.825 9.77569 12.6926 10.2688 13.4306C10.7619 14.1685 11.4627 14.7437 12.2827 15.0834C13.1027 15.423 14.005 15.5119 14.8755 15.3387C15.746 15.1656 16.5456 14.7382 17.1731 14.1106C17.8007 13.483 18.2281 12.6834 18.4013 11.8129C18.5744 10.9424 18.4856 10.0402 18.1459 9.22017C17.8063 8.40018 17.2311 7.69933 16.4931 7.20624Z" stroke="#ACACAC" stroke-width="1.1"/>
</svg>
