<svg width="28" height="28" viewBox="0 0 28 28" fill="none" xmlns="http://www.w3.org/2000/svg">
<path d="M24.9783 13.3116L14.6767 3.00998C14.245 2.57831 13.65 2.33331 13.0317 2.33331H4.66668C3.38334 2.33331 2.33334 3.38331 2.33334 4.66665V13.0316C2.33334 13.65 2.57834 14.245 3.02168 14.6766L13.3233 24.9783C14.2333 25.8883 15.715 25.8883 16.625 24.9783L24.99 16.6133C25.9 15.7033 25.9 14.2333 24.9783 13.3116ZM7.58334 9.33331C6.61501 9.33331 5.83334 8.55165 5.83334 7.58331C5.83334 6.61498 6.61501 5.83331 7.58334 5.83331C8.55168 5.83331 9.33334 6.61498 9.33334 7.58331C9.33334 8.55165 8.55168 9.33331 7.58334 9.33331Z" fill="#A83C54"/>
</svg>
