<svg width="28" height="28" viewBox="0 0 28 28" fill="none" xmlns="http://www.w3.org/2000/svg">
<path d="M3.41059 14.2877L3.41062 14.2877L3.40537 14.2826C3.07096 13.957 2.88334 13.5052 2.88334 13.0316V4.66665C2.88334 3.68707 3.6871 2.88331 4.66668 2.88331H13.0317C13.506 2.88331 13.9606 3.07168 14.2878 3.39889L24.5894 13.7006C25.2981 14.4092 25.2945 15.531 24.6011 16.2244L16.2361 24.5894C15.5409 25.2846 14.4075 25.2846 13.7123 24.5894L3.41059 14.2877ZM5.86668 7.58331C5.86668 8.05386 6.09641 8.47836 6.39235 8.77431C6.68829 9.07025 7.1128 9.29998 7.58334 9.29998C8.05389 9.29998 8.47839 9.07025 8.77434 8.77431C9.07028 8.47836 9.30001 8.05386 9.30001 7.58331C9.30001 7.11277 9.07028 6.68826 8.77434 6.39232C8.47839 6.09638 8.05389 5.86665 7.58334 5.86665C7.1128 5.86665 6.68829 6.09638 6.39235 6.39232C6.09641 6.68826 5.86668 7.11277 5.86668 7.58331Z" stroke="#ACACAC" stroke-width="1.1"/>
</svg>
