<svg width="24" height="24" viewBox="0 0 24 24" fill="none" xmlns="http://www.w3.org/2000/svg">
<path d="M7.5 4.50183V6.00183H21.75V8.97113L20.0859 14.2518H7.02806L5.15306 0.75H0.75V2.25H3.84694L5.72194 15.7518H21.186L23.25 9.20184V4.50183H7.5Z" fill="white"/>
<path d="M8.29614 17.2661C7.50077 17.267 6.73823 17.5834 6.17582 18.1458C5.61341 18.7082 5.29705 19.4707 5.29614 20.2661C5.29614 21.0618 5.61221 21.8248 6.17482 22.3874C6.73743 22.95 7.50049 23.2661 8.29614 23.2661C9.09179 23.2661 9.85485 22.95 10.4175 22.3874C10.9801 21.8248 11.2961 21.0618 11.2961 20.2661C11.2952 19.4707 10.9789 18.7082 10.4165 18.1458C9.85406 17.5834 9.09151 17.267 8.29614 17.2661V17.2661ZM8.29614 21.7661C7.99947 21.7661 7.70946 21.6781 7.46279 21.5133C7.21611 21.3485 7.02385 21.1142 6.91032 20.8401C6.79679 20.566 6.76709 20.2644 6.82496 19.9735C6.88284 19.6825 7.0257 19.4152 7.23548 19.2055C7.44526 18.9957 7.71253 18.8528 8.0035 18.7949C8.29448 18.7371 8.59608 18.7668 8.87017 18.8803C9.14425 18.9938 9.37852 19.1861 9.54334 19.4328C9.70817 19.6794 9.79614 19.9694 9.79614 20.2661C9.79567 20.6638 9.63748 21.0451 9.35628 21.3263C9.07508 21.6075 8.69382 21.7656 8.29614 21.7661V21.7661Z" fill="white"/>
<path d="M18.7961 17.2661C18.0008 17.267 17.2382 17.5834 16.6758 18.1458C16.1134 18.7082 15.797 19.4707 15.7961 20.2661C15.7961 21.0618 16.1122 21.8248 16.6748 22.3874C17.2374 22.95 18.0005 23.2661 18.7961 23.2661C19.5918 23.2661 20.3549 22.95 20.9175 22.3874C21.4801 21.8248 21.7961 21.0618 21.7961 20.2661C21.7953 19.4707 21.4789 18.7082 20.9165 18.1458C20.3541 17.5834 19.5915 17.267 18.7961 17.2661V17.2661ZM18.7961 21.7661C18.4995 21.7661 18.2095 21.6781 17.9628 21.5133C17.7161 21.3485 17.5239 21.1142 17.4103 20.8401C17.2968 20.566 17.2671 20.2644 17.325 19.9735C17.3828 19.6825 17.5257 19.4152 17.7355 19.2055C17.9453 18.9957 18.2125 18.8528 18.5035 18.7949C18.7945 18.7371 19.0961 18.7668 19.3702 18.8803C19.6443 18.9938 19.8785 19.1861 20.0433 19.4328C20.2082 19.6794 20.2961 19.9694 20.2961 20.2661C20.2957 20.6638 20.1375 21.0451 19.8563 21.3263C19.5751 21.6075 19.1938 21.7656 18.7961 21.7661V21.7661Z" fill="white"/>
</svg>
