<svg width="26" height="26" viewBox="0 0 26 26" fill="none" xmlns="http://www.w3.org/2000/svg">
<path d="M2.16669 9.10003C2.16655 8.32259 2.32138 7.55293 2.62212 6.83602C2.92286 6.11911 3.36349 5.46934 3.91824 4.92467C4.47298 4.38001 5.13073 3.95139 5.85304 3.66385C6.57535 3.37631 7.34772 3.23563 8.12502 3.25003C9.04473 3.24514 9.95497 3.43579 10.7954 3.80932C11.6359 4.18285 12.3873 4.73075 13 5.41669C13.6127 4.73075 14.3642 4.18285 15.2046 3.80932C16.0451 3.43579 16.9553 3.24514 17.875 3.25003C18.6523 3.23563 19.4247 3.37631 20.147 3.66385C20.8693 3.95139 21.5271 4.38001 22.0818 4.92467C22.6366 5.46934 23.0772 6.11911 23.3779 6.83602C23.6787 7.55293 23.8335 8.32259 23.8334 9.10003C23.8334 14.9024 16.9228 19.2834 13 22.75C9.08594 19.2541 2.16669 14.9067 2.16669 9.10003Z" fill="white"/>
</svg>
