<svg width="26" height="26" viewBox="0 0 26 26" fill="none" xmlns="http://www.w3.org/2000/svg">
<path d="M3.06669 9.10003L3.06669 9.09987C3.06657 8.44204 3.19758 7.79079 3.45206 7.18417C3.70653 6.57756 4.07936 6.02775 4.54877 5.56688C5.01817 5.10601 5.57473 4.74333 6.18591 4.50003C6.79709 4.25673 7.45064 4.13769 8.10835 4.14987L8.11908 4.15007L8.1298 4.15001C8.92197 4.14581 9.706 4.31001 10.4299 4.63175C11.1538 4.95349 11.8011 5.42541 12.3288 6.01623L13 6.76774L13.6713 6.01623C14.199 5.42541 14.8462 4.95349 15.5701 4.63175C16.294 4.31001 17.0781 4.14581 17.8702 4.15001L17.881 4.15007L17.8917 4.14987C18.5494 4.13769 19.203 4.25673 19.8141 4.50003C20.4253 4.74333 20.9819 5.10601 21.4513 5.56688C21.9207 6.02775 22.2935 6.57756 22.548 7.18417C22.8025 7.79079 22.9335 8.44204 22.9334 9.09987V9.10003C22.9334 11.6353 21.4199 13.9608 19.2462 16.1696C18.171 17.2622 16.9688 18.2922 15.7751 19.2762C15.4367 19.5552 15.0969 19.8322 14.7607 20.1062C14.1524 20.6019 13.5563 21.0878 13.0028 21.5577C12.4208 21.0594 11.7918 20.5451 11.1505 20.0208C10.8449 19.7709 10.5364 19.5187 10.229 19.2649C9.03503 18.2792 7.8323 17.2504 6.75631 16.1595C4.5813 13.9545 3.06669 11.6366 3.06669 9.10003Z" stroke="white" stroke-width="1.8"/>
</svg>
